<svg width="16" height="18" viewBox="0 0 16 18" fill="none" xmlns="http://www.w3.org/2000/svg">
<path fill-rule="evenodd" clip-rule="evenodd" d="M13.8333 2.33341H13V0.666748H11.3333V2.33341H4.66667V0.666748H3V2.33341H2.16667C1.24167 2.33341 0.508333 3.08341 0.508333 4.00008L0.5 15.6667C0.5 16.5834 1.24167 17.3334 2.16667 17.3334H13.8333C14.75 17.3334 15.5 16.5834 15.5 15.6667V4.00008C15.5 3.08341 14.75 2.33341 13.8333 2.33341ZM3.83333 8.16675V9.83341H5.5V8.16675H3.83333ZM8.83333 8.16675H7.16667V9.83341H8.83333V8.16675ZM10.5 8.16675H12.1667V9.83341H10.5V8.16675ZM2.16667 15.6667H13.8333V6.50008H2.16667V15.6667Z" fill="#010101"/>
</svg>
