<svg width="20" height="13" viewBox="0 0 20 13" fill="none" xmlns="http://www.w3.org/2000/svg">
<path fill-rule="evenodd" clip-rule="evenodd" d="M10 0.333374C5.83337 0.333374 2.27504 2.92504 0.833374 6.58337C2.27504 10.2417 5.83337 12.8334 10 12.8334C14.1667 12.8334 17.725 10.2417 19.1667 6.58337C17.725 2.92504 14.1667 0.333374 10 0.333374ZM10 10.75C7.70004 10.75 5.83337 8.88337 5.83337 6.58337C5.83337 4.28337 7.70004 2.41671 10 2.41671C12.3 2.41671 14.1667 4.28337 14.1667 6.58337C14.1667 8.88337 12.3 10.75 10 10.75ZM7.50004 6.58337C7.50004 5.20004 8.61671 4.08337 10 4.08337C11.3834 4.08337 12.5 5.20004 12.5 6.58337C12.5 7.96671 11.3834 9.08337 10 9.08337C8.61671 9.08337 7.50004 7.96671 7.50004 6.58337Z" fill="#CC1F20"/>
</svg>
