<svg viewBox="0 0 28 28" fill="none" xmlns="http://www.w3.org/2000/svg">
<path d="M14.8575 27.142C14.8575 26.669 14.4739 26.2846 14.0001 26.2846L1.71515 26.2842V1.71525H14.0001C14.4739 1.71525 14.8575 1.3316 14.8575 0.857825C14.8575 0.384047 14.4739 0.000398805 14.0001 0.000398805L0.857492 0C0.384076 0 0 0.383648 0 0.857426V27.1426C0 27.616 0.384076 28 0.857492 28H14.0001C14.4739 27.9988 14.8575 27.6148 14.8575 27.1414V27.142ZM19.6963 7.41234C19.6963 7.63208 19.7796 7.85143 19.9467 8.01892L25.0721 13.1431H7.42688C6.95347 13.1431 6.56939 13.5268 6.56939 14.0006C6.56939 14.4743 6.95347 14.858 7.42688 14.858H25.0721L19.9304 19.9989C19.7629 20.1664 19.6795 20.3862 19.6795 20.6059C19.6795 20.8249 19.7629 21.045 19.9304 21.2125C20.265 21.5475 20.8082 21.5475 21.1433 21.2125L27.7487 14.6075C27.8293 14.527 27.8915 14.4312 27.9358 14.3264C27.9374 14.322 27.9382 14.3172 27.9398 14.3136C27.9781 14.2171 28 14.1114 28 14.0009C28 13.8905 27.9777 13.7848 27.9398 13.6875C27.9382 13.6835 27.9374 13.6787 27.9358 13.6747C27.8919 13.5682 27.8281 13.4729 27.7483 13.3928L21.1596 6.80564C20.8246 6.47065 20.2818 6.47065 19.9467 6.80564C19.7792 6.97234 19.6963 7.19209 19.6963 7.41223L19.6963 7.41234Z" fill="white"/>
</svg>
