<svg viewBox="0 0 20 20" fill="none" xmlns="http://www.w3.org/2000/svg">
<path d="M8.72974 7.09033L10.0967 5.72336C10.6755 5.19584 11.4352 4.91162 12.2181 4.92974C13.001 4.94787 13.7468 5.26695 14.3005 5.82068C14.8543 6.37441 15.1734 7.12021 15.1915 7.90309C15.2096 8.68598 14.9254 9.44574 14.3979 10.0245L12.4441 11.9714C12.1625 12.2541 11.8278 12.4783 11.4594 12.6313C11.0909 12.7844 10.6959 12.8631 10.2969 12.8631" stroke="#CC1F20" stroke-width="1.06044" stroke-linecap="round" stroke-linejoin="round"/>
<path d="M9.51676 14.9056L8.14978 16.2726C7.57102 16.8001 6.81125 17.0843 6.02837 17.0662C5.24548 17.0481 4.49968 16.729 3.94595 16.1752C3.39222 15.6215 3.07314 14.8757 3.05502 14.0928C3.03689 13.3099 3.32112 12.5502 3.84863 11.9714L5.80244 10.0245C6.08403 9.74186 6.41865 9.5176 6.7871 9.36458C7.15556 9.21155 7.5506 9.13278 7.94957 9.13278" stroke="#CC1F20" stroke-width="1.06044" stroke-linecap="round" stroke-linejoin="round"/>
<path d="M13.4974 14.1223L15.372 15.9969M5.99892 6.62385L4.1243 4.74924M15.9969 11.6228L18.4964 11.6228" stroke="#CC1F20" stroke-width="0.883704" stroke-linecap="round"/>
<path d="M8.49854 4.12437L8.49854 1.62488" stroke="#CC1F20" stroke-width="0.883704" stroke-linecap="round"/>
<path d="M3.4995 9.12334L1.00001 9.12334M10.998 16.6218V19.1213" stroke="#CC1F20" stroke-width="0.883704" stroke-linecap="round"/>
</svg>
