<svg width="88" height="18" viewBox="0 0 88 18" fill="none" xmlns="http://www.w3.org/2000/svg">
<path fill-rule="evenodd" clip-rule="evenodd" d="M20.8267 3.39169H26.1067V4.87389H22.7627V8.87982H25.9013V10.362H22.7627V14.6751H26.1067V16.1573H20.8267V3.39169Z" fill="white"/>
<path fill-rule="evenodd" clip-rule="evenodd" d="M28.4531 3.39169H31.4598C34.2905 3.39169 34.5838 4.08606 34.5838 6.87686C34.5838 8.58606 34.3345 9.33383 32.7358 9.77448V9.81454C34.0558 9.93472 34.4958 10.5623 34.4958 11.7641V14.5415C34.4958 14.9956 34.4958 15.6365 34.6131 16.1706H32.7945C32.6038 15.8502 32.5598 15.5297 32.5598 15.0223V12.138C32.5598 10.9362 32.3251 10.6157 31.0491 10.6157H30.3891V16.1706H28.4531V3.39169ZM30.3891 9.12018H30.8878C32.4278 9.12018 32.6331 8.85312 32.6331 6.94362C32.6331 5.04748 32.5158 4.87389 31.3131 4.87389H30.3745V9.12018H30.3891Z" fill="white"/>
<path fill-rule="evenodd" clip-rule="evenodd" d="M37.2241 3.39169H42.5041V4.87389H39.1601V8.87982H42.3135V10.362H39.1601V16.1573H37.2241V3.39169Z" fill="white"/>
<mask id="mask0_2624_3546" style="mask-type:alpha" maskUnits="userSpaceOnUse" x="0" y="0" width="88" height="18">
<path d="M0 18H88V0H0V18Z" fill="white"/>
</mask>
<g mask="url(#mask0_2624_3546)">
<path fill-rule="evenodd" clip-rule="evenodd" d="M44.8213 16.1573H46.7573V3.39169H44.8213V16.1573Z" fill="white"/>
<path fill-rule="evenodd" clip-rule="evenodd" d="M49.2798 6.64984C49.2798 4.86052 49.9251 3.28485 52.5651 3.28485C54.4865 3.28485 55.3811 4.16616 55.3811 5.59494V6.86349H53.5624V5.99553C53.5624 5.18099 53.2545 4.67358 52.4331 4.67358C51.4211 4.67358 51.2305 5.32788 51.2305 6.86349V13.1261C51.2305 14.635 51.7585 14.8887 52.3745 14.8887C53.0931 14.8887 53.5624 14.4347 53.5624 13.3665V12.4851H55.3811V13.9006C55.3811 15.2492 54.7798 16.2641 52.5211 16.2641C50.0718 16.2641 49.2798 15.0757 49.2798 13.0994V6.64984Z" fill="white"/>
<path fill-rule="evenodd" clip-rule="evenodd" d="M57.7573 16.1573H59.6933V3.39169H57.7573V16.1573Z" fill="white"/>
<path fill-rule="evenodd" clip-rule="evenodd" d="M62.3188 3.39169H67.5988V4.87389H64.2695V8.87982H67.408V10.362H64.2695V14.6751H67.5988V16.1573H62.3188V3.39169Z" fill="white"/>
<path fill-rule="evenodd" clip-rule="evenodd" d="M69.9453 3.39169H72.6293L74.9172 14.0074H74.9612V3.39169H76.7945V16.1573H73.9933L71.7053 5.27448H71.6612V16.1573H69.9453V3.39169Z" fill="white"/>
<path fill-rule="evenodd" clip-rule="evenodd" d="M79.1411 3.39169H85.7411V4.87389H83.4093V16.1573H81.4731V4.87389H79.1411V3.39169Z" fill="white"/>
<path fill-rule="evenodd" clip-rule="evenodd" d="M0 18.0001V0.00012207H11.4987C16.2653 0.00012207 18.5093 2.52386 18.5093 5.90207C18.5093 9.49419 15.928 11.9378 10.3987 11.9378H7.788V11.2969H9.768C13.6107 11.2969 15.4 9.38736 15.4 6.58321C15.4 3.93929 13.8453 1.97638 10.5307 1.97638H2.552V16.0237H7.84667V18.0001H0Z" fill="#E61717"/>
<path fill-rule="evenodd" clip-rule="evenodd" d="M7.78809 8.11868V5.181H8.36009C9.53342 5.181 9.98809 5.6083 9.98809 6.59643C9.98809 7.58456 9.46009 8.11868 8.05209 8.11868H7.78809Z" fill="white"/>
<path fill-rule="evenodd" clip-rule="evenodd" d="M87.1933 4.8739C87.648 4.8739 88 4.54007 88 4.13948C88 3.72553 87.6333 3.40506 87.1933 3.40506C86.7387 3.40506 86.3867 3.73889 86.3867 4.13948C86.372 4.54007 86.7387 4.8739 87.1933 4.8739ZM87.1933 4.74037C86.8267 4.74037 86.5187 4.47331 86.5187 4.12613C86.5187 3.7923 86.812 3.51188 87.1933 3.51188C87.56 3.51188 87.868 3.77895 87.868 4.12613C87.8533 4.47331 87.56 4.74037 87.1933 4.74037ZM87.1493 4.17954C87.208 4.17954 87.252 4.17954 87.2813 4.2196C87.3253 4.25966 87.3253 4.32642 87.34 4.40654C87.34 4.45996 87.3693 4.51337 87.3693 4.56678H87.56C87.5307 4.48666 87.516 4.39319 87.5013 4.31307C87.4867 4.2196 87.472 4.16619 87.34 4.13948C87.472 4.11277 87.5307 4.03266 87.5307 3.93918C87.5307 3.73889 87.3547 3.69883 87.1787 3.69883H86.8707V4.56678H87.0173V4.19289H87.1493V4.17954ZM87.0173 4.04601V3.81901H87.1933C87.3107 3.81901 87.34 3.84571 87.34 3.91248C87.34 3.97924 87.3107 4.03266 87.164 4.03266H87.0173V4.04601Z" fill="white"/>
</g>
</svg>
