<svg viewBox="0 0 38 38" fill="none" xmlns="http://www.w3.org/2000/svg">
<circle cx="19" cy="19" r="18.5" stroke="#D1D3D4"/>
<path d="M19 19C19.9283 19 20.8185 18.6313 21.4749 17.9749C22.1313 17.3185 22.5 16.4283 22.5 15.5C22.5 14.5717 22.1313 13.6815 21.4749 13.0251C20.8185 12.3687 19.9283 12 19 12C18.0717 12 17.1815 12.3687 16.5251 13.0251C15.8687 13.6815 15.5 14.5717 15.5 15.5C15.5 16.4283 15.8687 17.3185 16.5251 17.9749C17.1815 18.6313 18.0717 19 19 19ZM21.3333 15.5C21.3333 16.1188 21.0875 16.7123 20.6499 17.1499C20.2123 17.5875 19.6188 17.8333 19 17.8333C18.3812 17.8333 17.7877 17.5875 17.3501 17.1499C16.9125 16.7123 16.6667 16.1188 16.6667 15.5C16.6667 14.8812 16.9125 14.2877 17.3501 13.8501C17.7877 13.4125 18.3812 13.1667 19 13.1667C19.6188 13.1667 20.2123 13.4125 20.6499 13.8501C21.0875 14.2877 21.3333 14.8812 21.3333 15.5ZM26 24.8333C26 26 24.8333 26 24.8333 26H13.1667C13.1667 26 12 26 12 24.8333C12 23.6667 13.1667 20.1667 19 20.1667C24.8333 20.1667 26 23.6667 26 24.8333ZM24.8333 24.8287C24.8322 24.5417 24.6537 23.6783 23.8627 22.8873C23.102 22.1267 21.6705 21.3333 19 21.3333C16.3283 21.3333 14.898 22.1267 14.1373 22.8873C13.3463 23.6783 13.169 24.5417 13.1667 24.8287H24.8333Z" fill="#D1D3D4"/>
</svg>
