<svg width="4" height="8" viewBox="0 0 4 8" fill="none" xmlns="http://www.w3.org/2000/svg">
<path fill-rule="evenodd" clip-rule="evenodd" d="M0.243164 8C0.213704 8 0.182799 7.99342 0.150879 7.98026C0.118959 7.96709 0.0909562 7.94734 0.0664062 7.92102C0.0222063 7.86837 0 7.8052 0 7.73149C0 7.65778 0.0222063 7.59461 0.0664063 7.54196L3.396 3.97237L0.117676 0.458038C0.0685658 0.405389 0.0444336 0.342218 0.0444336 0.268509C0.0444336 0.194801 0.0685658 0.131629 0.117676 0.0789795C0.166786 0.0263305 0.225684 0 0.294434 0C0.363184 0 0.42257 0.0263305 0.47168 0.0789795L3.92627 3.78282C3.97538 3.83547 4 3.89866 4 3.97237C4 4.04608 3.97538 4.10925 3.92627 4.1619L0.427246 7.92102C0.402686 7.94734 0.374693 7.96709 0.342773 7.98026C0.310853 7.99342 0.277544 8 0.243164 8Z" fill="#69727E"/>
</svg>
